<?xml version="1.0" encoding="UTF-8"?>
<svg width="65px" height="43px" viewBox="0 0 65 43" version="1.1" xmlns="http://www.w3.org/2000/svg" xmlns:xlink="http://www.w3.org/1999/xlink">
    <!-- Generator: Sketch 50.2 (55047) - http://www.bohemiancoding.com/sketch -->
    <title>Logo color</title>
    <desc>Created with Sketch.</desc>
    <defs>
        <polygon id="path-1" points="0.0274647887 0.0665368421 64.8773239 0.0665368421 64.8773239 42.8538 0.0274647887 42.8538"></polygon>
    </defs>
    <g id="Page-1" stroke="none" stroke-width="1" fill="none" fill-rule="evenodd">
        <g id="Desktop" transform="translate(-270.000000, -649.000000)">
            <g id="BG">
                <g id="Footer" transform="translate(250.000000, 637.000000)">
                    <g id="Logo-color" transform="translate(20.000000, 12.000000)">
                        <g id="Group-3">
                            <mask id="mask-2" fill="white">
                                <use xlink:href="#path-1"></use>
                            </mask>
                            <g id="Clip-2"></g>
                            <path d="M39.2970775,0.0665368421 C35.5815493,0.0665368421 31.6618662,0.510568421 27.6790141,1.44661053 C20.1582394,3.21549474 13.6252817,6.45543158 8.79788732,10.4449263 C2.25257042,15.8556842 -1.1571831,22.6419895 0.355211268,29.0046316 C0.465985915,29.4681263 0.60056338,29.9221158 0.758943662,30.3666 C1.62454225,32.7958737 3.19232394,34.9268632 5.30940141,36.7093263 C9.95735915,40.6232316 17.2552113,42.8538 25.5839085,42.8538 C29.2985211,42.8538 33.216831,42.4106737 37.1992254,41.4746316 C39.5442606,40.9228737 41.7936268,40.2285368 43.9244366,39.4124421 C48.6286972,37.6105158 52.7598592,35.2183579 56.0821831,32.4717895 C58.3992958,30.5562526 60.3227465,28.4673579 61.7747183,26.2861263 C64.4223239,22.3088526 65.4989437,18.0242421 64.5225704,13.9170632 C63.8080282,10.9192842 62.0740845,8.32253684 59.5729577,6.21463158 C56.7157042,3.80798947 52.8591901,2.03774737 48.3773944,1.02973684 C45.5659155,0.398315789 42.5077113,0.0665368421 39.2970775,0.0665368421" id="Fill-1" fill="#6AAD40" mask="url(#mask-2)"></path>
                        </g>
                        <path d="M11.4050871,22.9391015 C11.4050871,22.4444892 10.5736519,20.7128874 11.2930922,18.6394616 C11.9940972,16.6192595 12.5466975,17.2703308 13.7588232,15.3395993 C17.5887716,9.24182807 26.0252585,5 34.383856,5 C49.4722859,5 53.4852054,13.4749385 53.4852054,20.0608985 C53.4852054,20.6202049 54.4396968,22.6165483 53.7492921,24.4220208 C52.8920473,26.6661291 52.0232804,26.316964 50.5447636,28.327072 C46.1092132,34.3592314 37.084638,38 30.5055147,38 C15.4120151,38 11.4050871,29.6090263 11.4050871,22.9391015" id="Fill-4" fill="#005F9F"></path>
                        <path d="M41.9995191,27.0699143 C41.9995191,28.0057816 41.0396122,27.9999991 41.0396122,27.9999991 L38.7365091,27.9999991 C38.7365091,27.9999991 37.7761213,28.0057816 37.7761213,27.0699143 L37.7761213,20.6184793 C37.7761213,20.6184793 37.7645794,20.0291142 37.1932521,20.0291142 C36.6151919,20.0291142 36.6118255,20.607804 36.6118255,20.607804 L36.6118255,27.0699143 C36.6118255,28.0057816 35.6519187,27.9999991 35.6519187,27.9999991 L33.3478537,27.9999991 C33.3478537,27.9999991 32.3879468,28.0057816 32.3879468,27.0699143 L32.3879468,20.6184793 C32.3879468,20.6184793 32.375924,20.0291142 31.8055585,20.0291142 C31.2270174,20.0291142 31.223651,20.607804 31.223651,20.607804 L31.223651,27.0699143 C31.223651,28.0057816 30.2637442,27.9999991 30.2637442,27.9999991 L27.9601601,27.9999991 C27.9601601,27.9999991 27.0002533,28.0057816 27.0002533,27.0699143 C27.0002533,27.0699143 27.0002533,19.8471894 27.0002533,19.1363929 C27.0002533,18.8219166 26.9709174,18.274363 27.5436875,17.8949453 C28.4170296,17.3162555 30.1271642,17 31.4958491,17 C32.4067025,17 33.6868989,17.1125354 34.6636378,17.9852405 C34.6636378,17.9852405 35.6567278,17.0008896 38.3844791,17.0008896 C41.9475802,17.0008896 42,19.5424988 42,20.2888796 L41.9995191,27.0699143" id="Fill-5" fill="#213372"></path>
                        <path d="M43,27.0338548 C43,28.0060057 43.9091932,27.9999991 43.9091932,27.9999991 L46.0912569,27.9999991 C46.0912569,27.9999991 47,28.0060057 47,27.0338548 L47,17.966145 C47,16.9944561 46.0912569,17.0000007 46.0912569,17.0000007 L43.9091932,17.0000007 C43.9091932,17.0000007 43,16.9944561 43,17.966145 L43,27.0338548" id="Fill-6" fill="#213372"></path>
                        <path d="M13.3413287,21.3256323 L13.3413287,18.2449132 C13.3413287,18.2449132 14.6751985,18.0702107 14.6751985,19.819863 C14.6751985,21.2919178 13.3413287,21.3256323 13.3413287,21.3256323 Z M24.9936984,29.6272858 C24.946987,29.2143924 24.5652747,29.071653 24.0179493,29.1876835 C23.3616306,29.3264822 22.3391701,29.5278936 21.4337239,29.1806779 C19.0745626,28.2752021 16.7455985,23.0871066 16.7455985,23.0871066 C16.7455985,23.0871066 19.0806964,21.770051 19.0806964,19.1302478 C19.0806964,15.3445887 15.1559956,15 13.4993925,15 C11.877705,15 10.4999548,15.0612991 9.5001422,15.2552671 C9.25950775,15.3021171 9,15.3796168 9,15.998738 L9,27.8023231 C9,28.7235615 9.98660127,28.7178694 9.98660127,28.7178694 L12.3547274,28.7178694 C12.3547274,28.7178694 13.3413287,28.7235615 13.3413287,27.8023231 L13.3413287,25.2535929 C13.3413287,25.2535929 14.4944868,27.1599958 15.517891,28.3899191 C18.5272372,32.0070056 20.2555588,31.9999999 21.4214563,31.9999999 C23.6112298,31.9999999 25.1097691,30.6531705 24.9936984,29.6272858 Z" id="Fill-7" fill="#213372"></path>
                        <path d="M22.4193068,20.6241863 C23.0170986,20.5159329 23.0064486,21.3261932 23.0064486,21.3261932 C23.0064486,21.3261932 21.8428151,21.6397063 21.9067154,21.6181493 C21.9706157,21.5965924 21.821515,20.7324397 22.4193068,20.6241863 Z M25.785185,24.3910296 C24.5766361,24.3680668 24.9030832,25.6877272 23.1384166,25.7163136 C22.2840975,25.7299039 22.1845427,24.4917849 22.1845427,24.4917849 C22.1845427,24.4917849 24.9387377,23.756974 25.9847576,23.454708 C27.0307775,23.1519734 26.9205727,21.077351 26.3991834,19.7066099 C25.6953541,17.8588041 24.0362619,16.555077 21.6779709,17.1422697 C20.2582732,17.4960849 18,18.8255866 18,23.0174768 C18,27.209367 20.5050765,29 22.8110434,29 C25.1165472,29 26.7390588,27.0556565 26.9525228,26.1624488 C27.1659868,25.2692412 26.639041,24.4074316 25.785185,24.3910296 Z" id="Fill-8" fill="#213372"></path>
                        <path d="M47,15.9338184 C47,17.0016428 45.8809224,18 44.4997578,18 C43.1190776,18 42,17.0016428 42,15.9338184 C42,14.8659939 43.1190776,14 44.4997578,14 C45.8809224,14 47,14.8659939 47,15.9338184" id="Fill-9" fill="#213372"></path>
                        <path d="M52.8042405,25.7516175 C52.8042405,25.7516175 52.2576531,25.8413388 52.2576531,25.243984 C52.2576531,24.424687 52.8042405,24.3845485 52.8042405,24.3845485 L52.8042405,25.7516175 Z M53.547111,17.0000151 C52.0825009,16.9981262 51.0977983,17.1733188 50.2952915,17.5680925 C49.6059527,17.9066722 48.8856219,18.4851384 48.5761708,19.182131 C48.271885,19.8692071 48.5047951,21.2074709 49.1039751,21.5540783 C50.6338564,22.4394857 51.6659863,20.7413924 51.7669453,20.6393935 C51.8679043,20.538339 52.1280498,20.2984526 52.3881954,20.2984526 C52.6474018,20.2984526 52.6906029,20.3787296 52.6906029,20.3787296 L52.6906029,21.2131375 C52.6906029,21.2131375 48,21.720771 48,25.4512873 C48,28.6160874 51.034875,29 52.7774746,29 C54.5205438,29 55.9381962,28.7025031 55.9381962,28.7025031 C56.1546711,28.6519759 56.9919266,28.5140884 56.9919266,27.6862916 C56.9919266,26.7574403 56.9994398,21.0124451 56.9994398,21.0124451 C56.9994398,20.505756 57.0262057,19.2827133 56.7097109,18.5092215 C56.3791288,17.7017299 55.6015096,17.0033206 53.547111,17.0000151 Z" id="Fill-10" fill="#213372"></path>
                        <path d="M22.1893896,22.8511208 C22.3660986,22.8028936 26.2123397,21.800393 26.2123397,21.800393 C26.5906662,21.6990265 26.8115525,21.6972403 26.8115525,20.772439 C26.8115525,19.8141466 26.0934371,17 23.2252053,17 C21.2983249,17 19.0213164,18.3396445 19.0001677,21.898187 C18.9837187,24.5672055 20.1755647,27 23.3873452,27 C25.3024762,27 26.3556808,25.7599357 26.7725449,25.1383406 C27.0136399,24.7833348 27.1682603,24.2559614 26.6780808,23.9277485 C26.2217391,23.6236492 25.7043013,23.9585603 25.3024762,24.3559882 C24.790678,24.8654997 24.3070781,25.0780566 23.6763772,25.0780566 C23.0593056,25.0780566 22.215238,24.7757435 22.0488683,23.0404573 C22.0366491,22.9096186 22.0751867,22.8823792 22.1893896,22.8511208 Z M24.0894816,20.762615 C23.9964274,20.7822631 22.0117406,21.2917746 21.974143,21.3011521 C21.8627599,21.3297312 21.7842748,21.360543 21.7842748,21.1564705 C21.7828648,20.3232116 21.9215062,19.2573011 22.6485511,19.0509958 C23.6679178,18.761186 24.1496378,19.6690185 24.1811259,20.6264178 C24.1844157,20.6648209 24.1844157,20.7429669 24.0894816,20.762615 Z" id="Fill-11" fill="#FFFFFE"></path>
                        <path d="M54.9937556,20.8989364 C54.9966936,20.3447022 55.0655273,18.6770632 54.6642772,17.996724 C54.1463456,17.118476 53.2527667,17 52.2567766,17 C51.8924617,17 50.6479988,17.0080779 49.8396226,17.461787 C49.1798264,17.8333707 48.8142523,18.1856572 48.5179316,18.7811785 C48.2984193,19.2209756 48.334515,19.7482834 48.7332468,20.0031863 C49.0140379,20.1826953 49.6708961,20.3402145 50.1926051,19.5642867 C50.3470612,19.3358614 50.9837729,18.4872324 51.7971858,18.795988 C52.2261372,18.9588924 52.1686359,19.3547099 52.1875232,20.5237625 C52.1875232,20.5237625 52.2118668,20.718081 52.1153318,20.7512902 C52.0389432,20.7777678 51.2830316,20.8643809 50.668565,21.0721626 C49.2625108,21.5483104 48,22.4014271 48,24.2463313 C48,26.7074003 50.2568219,27 51.7061071,27 C53.148257,27 54.6286012,26.7675358 54.854829,26.5830902 C54.9576599,26.4996185 54.9862007,26.4376879 54.9937556,26.2339452 L54.9937556,20.8989364 Z M52.2899343,22.3368038 L52.2937118,24.2216488 C52.2899343,24.6991428 52.2693682,25.223758 51.7535352,25.2183728 C51.2511331,25.2129875 50.7525085,24.5757304 50.7525085,23.933088 C50.7525085,22.5127227 51.8995969,22.2721806 52.2362105,22.2721806 C52.2941315,22.2721806 52.2899343,22.3368038 52.2899343,22.3368038 Z" id="Fill-12" fill="#FFFFFE"></path>
                        <path d="M28,19.2369765 C28,18.4662457 28.0182181,18.2034544 28.4850576,17.8459467 C29.3663595,17.2066116 31.0747644,17 31.8121431,17 C33.5742914,17 34.293452,17.6769431 34.6710227,18.0149503 C34.9584136,17.752159 35.7167432,17 37.9070175,17 C40.9102757,17 40.9822373,19.2936206 41,20.1771752 L41,26.5491689 C41,26.8500325 40.9462565,27 40.640192,27 L38.5546719,27 C38.2308447,27 38.1411204,26.8690686 38.1411204,26.568205 L38.1411204,19.8619185 C38.1411204,19.587984 37.9821673,18.7671093 37.0375574,18.7671093 C36.0701748,18.7671093 35.9298952,19.5949485 35.9298952,19.8619185 L35.9298952,26.568205 C35.9298952,26.8876404 35.8579336,27 35.5163438,27 L33.5560733,27 C33.2327015,27 33.0705602,26.9442845 33.0705602,26.5491689 L33.0705602,19.8619185 C33.0705602,19.5912341 32.9157061,18.7141796 31.9669972,18.7141796 C31.0146446,18.7141796 30.8588796,19.587984 30.8588796,19.8619185 L30.8588796,26.5301328 C30.8588796,26.8690686 30.7873734,27 30.4093473,27 L28.4317696,27 C28.1257051,27 28,26.9252484 28,26.568205 L28,19.2369765" id="Fill-13" fill="#FFFFFE"></path>
                        <path d="M45,15 C43.8911547,15 43,15.5672794 43,16.2648674 C43,16.9573903 43.8911547,17.521907 45,17.521907 C46.1057864,17.521907 47,16.9573903 47,16.2648674 C47,15.5672794 46.1057864,15 45,15 Z M46.6426204,27.5372437 C46.6426204,27.9921723 46.4009686,28 46.1419832,28 L43.7667601,28 C43.6326791,28 43.3563599,27.9921723 43.3563599,27.5722382 L43.3563599,18.7223108 C43.3563599,18.5652959 43.3787917,18.3074416 43.7830742,18.3074416 L46.1837879,18.3074416 C46.5901096,18.3074416 46.6426204,18.5210923 46.6426204,18.7223108 L46.6426204,27.5372437 Z" id="Fill-14" fill="#FFFFFE"></path>
                        <path d="M13.6704796,21.1945132 C13.2329795,21.2376161 13.1896534,21.2046292 13.1882406,20.7911925 C13.1872987,20.4617626 13.1882406,17.4238826 13.1882406,17.0469515 C13.1882406,16.6700203 13.3281087,16.6392325 13.6393978,16.6502282 C14.4649496,16.6788169 15.7129315,16.7522679 15.7129315,18.8867447 C15.7129315,20.7102644 14.491322,21.1135851 13.6704796,21.1945132 Z M24.276442,29.1769201 C23.972217,29.2530101 23.5766303,29.3801199 22.7232932,29.3735225 C20.348831,29.3554896 18.2969604,25.7700258 16.6364381,22.6520974 C16.6364381,22.6520974 16.3731846,22.2061136 16.4047373,22.1133102 C16.4254585,22.0512947 16.5653267,21.9637693 16.696718,21.8907582 C17.8085992,21.2930343 18.8837474,20.2902304 18.8837474,18.5881027 C18.8837474,15 14.7964889,15 13.6196184,15 C12.538819,15 10.875942,15.1033592 10.3734527,15.2432239 C10.1130248,15.3281104 10.0197793,15.4323492 10,15.7991643 L10,26.9953818 C10.0197793,27.3261312 10.1469322,27.3762714 10.4502154,27.3762714 L12.6687975,27.3762714 C13.0629714,27.3762714 13.1529203,27.3256914 13.1741125,26.9953818 L13.1741125,23.2331079 C13.1741125,23.1301886 13.1609262,22.8614547 13.3149225,22.8614547 C13.4938784,22.8614547 13.6111416,23.070812 13.7623122,23.3311892 C16.2267233,27.5812304 18.8470143,31 22.0168884,31 C23.2465037,31 23.942548,30.501237 24.3400184,30.2113915 C25.2093673,29.577162 25.2517516,28.9345758 24.276442,29.1769201 Z" id="Fill-15" fill="#FFFFFE"></path>
                        <path d="M57.5758575,15.918634 L57.7691293,15.918634 C58.0989446,15.918634 58.3093668,15.7907403 58.3093668,15.6041714 C58.3093668,15.427229 58.0989446,15.3415081 57.8746702,15.3415081 L57.5758575,15.3415081 L57.5758575,15.918634 Z M59,17 L58.3186016,17 L57.8575198,16.2486821 C57.8172823,16.2523493 57.7691293,16.2550997 57.7203166,16.2550997 L57.5758575,16.2550997 L57.5758575,17 L57,17 L57,15 L57.9848285,15 C58.6127968,15 58.9116095,15.2530369 58.9116095,15.5766674 C58.9116095,15.8090763 58.7401055,16.0258996 58.3977573,16.1478341 L59,17 Z" id="Fill-16" fill="#FFFFFE"></path>
                        <path d="M58,14 C56.8955791,14 56,14.8952794 56,16 C56,17.1047206 56.8955791,18 58,18 C59.1044209,18 60,17.1047206 60,16 C60,14.8952794 59.1044209,14 58,14 Z M58,14.3000543 C58.9373474,14.3000543 59.7000271,15.0629409 59.7000271,16 C59.7000271,16.9376017 58.9373474,17.7004883 58,17.7004883 C57.0626526,17.7004883 56.3005153,16.9376017 56.3005153,16 C56.3005153,15.0629409 57.0626526,14.3000543 58,14.3000543 Z" id="Fill-17" fill="#FFFFFE"></path>
                    </g>
                </g>
            </g>
        </g>
    </g>
</svg>