<?xml version="1.0" encoding="UTF-8" standalone="no"?>
<svg width="413px" height="413px" viewBox="0 0 413 413" version="1.1" xmlns="http://www.w3.org/2000/svg" xmlns:xlink="http://www.w3.org/1999/xlink">
    <!-- Generator: Sketch 50.2 (55047) - http://www.bohemiancoding.com/sketch -->
    <title>Shape</title>
    <desc>Created with Sketch.</desc>
    <defs></defs>
    <g id="Page-1" stroke="none" stroke-width="1" fill="none" fill-rule="evenodd">
        <path d="M206.12,412.17 C151.403433,412.265882 98.9020684,390.564034 60.2228143,351.862261 C21.5435602,313.160488 -0.127727829,260.646502 1.57384956e-14,205.93 C-0.06,90.91 94.74,-2.07 210.05,0 C321.51,2 414.19,94.15 412.2,209.82 C410.27,322.52 317.78,412.67 206.12,412.17 Z M266.77,74.41 C247.77,75.24 229.12,74.64 210.94,77.17 C186.94,80.52 174.19,96.49 173.17,120.88 C172.83,129.03 173.04,137.2 173.01,145.36 C173.01,150.64 173.01,155.92 173.01,161.66 L145.59,161.66 L145.59,206.76 L173.13,206.76 L173.13,338.66 L226.27,338.66 L226.27,205.66 L263,205.66 C264.32,190.87 265.59,176.51 266.92,161.56 L226.18,161.56 C226.18,150.86 225.95,140.72 226.27,130.56 C226.45,124.56 229.2,121.9 235.4,121.5 C242.54,121.05 249.71,121.19 256.87,121.1 C260.12,121.1 263.37,121.1 266.77,121.1 L266.77,74.41 Z" id="Shape" fill="#FFFFFF" fill-rule="nonzero"></path>
    </g>
</svg>