<?xml version="1.0" encoding="UTF-8"?>
<svg width="27px" height="28px" viewBox="0 0 27 28" version="1.1" xmlns="http://www.w3.org/2000/svg" xmlns:xlink="http://www.w3.org/1999/xlink">
    <!-- Generator: Sketch 50.2 (55047) - http://www.bohemiancoding.com/sketch -->
    <title>Shape</title>
    <desc>Created with Sketch.</desc>
    <defs></defs>
    <g id="Page-1" stroke="none" stroke-width="1" fill="none" fill-rule="evenodd">
        <g id="Desktop" transform="translate(-977.000000, -665.000000)" fill="#FFFFFF" fill-rule="nonzero">
            <g id="BG">
                <g id="Footer" transform="translate(250.000000, 637.000000)">
                    <g id="noun_781175_cc" transform="translate(727.000000, 28.000000)">
                        <g id="Group">
                            <path d="M13.5,0.230475064 C6.05532458,0.230475064 0,6.36735596 0,13.9123091 C0,21.4572591 6.05532458,27.5941273 13.5,27.5941273 C20.9446723,27.5941273 27,21.4572591 27,13.9123091 C27,6.36735596 20.9446723,0.230475064 13.5,0.230475064 Z M12.5581396,2.29865688 L12.5581396,6.58416823 L9.29106109,6.58416823 C10.0561124,4.39918824 11.1718811,2.79900415 12.5581396,2.29865688 Z M14.4418605,2.29865688 C15.828119,2.79900415 16.9438877,4.39918824 17.708939,6.58416823 L14.4418605,6.58416823 L14.4418605,2.29865688 Z M9.15370644,2.9946796 C8.463599,3.98372233 7.87338214,5.19743642 7.40734016,6.58416823 L4.40515994,6.58416823 C5.64486807,5.00401051 7.27612958,3.7610046 9.15370644,2.9946796 Z M17.8462936,2.9946796 C19.7238705,3.7610046 21.3551351,5.00401051 22.5948401,6.58416823 L19.5926599,6.58416823 C19.1266179,5.19743642 18.5364011,3.98372233 17.8462936,2.9946796 Z M3.18859017,8.49325914 L6.8677326,8.49325914 C6.55202412,9.87421595 6.35715005,11.3779559 6.29869191,12.9478046 L1.92296517,12.9478046 C2.05035808,11.3513814 2.49764448,9.84467277 3.18859017,8.49325914 Z M8.74164248,8.49325914 L12.5581396,8.49325914 L12.5581396,12.9478046 L8.18241283,12.9478046 C8.23899039,11.3848828 8.42856807,9.8678205 8.74164248,8.49325914 Z M14.4418605,8.49325914 L18.2583576,8.49325914 C18.571432,9.8678205 18.7610097,11.3848828 18.8175872,12.9478046 L14.4418605,12.9478046 L14.4418605,8.49325914 Z M20.1322675,8.49325914 L23.8114099,8.49325914 C24.5023556,9.84467277 24.949642,11.3513814 25.0770349,12.9478046 L20.7013082,12.9478046 C20.64285,11.3779559 20.4479759,9.87421595 20.1322675,8.49325914 Z M1.92296517,14.8568955 L6.29869191,14.8568955 C6.35547354,16.4301773 6.552539,17.92805 6.8677326,19.3114409 L3.17877913,19.3114409 C2.49078459,17.9595182 2.04767378,16.4529273 1.92296517,14.8568955 Z M8.18241283,14.8568955 L12.5581396,14.8568955 L12.5581396,19.3114409 L8.74164248,19.3114409 C8.42904528,17.9360046 8.23833109,16.4203773 8.18241283,14.8568955 Z M14.4418605,14.8568955 L18.8175872,14.8568955 C18.761669,16.4203773 18.5709548,17.9360046 18.2583576,19.3114409 L14.4418605,19.3114409 L14.4418605,14.8568955 Z M20.7013082,14.8568955 L25.0770349,14.8568955 C24.9523263,16.4529273 24.5092155,17.9595182 23.8212209,19.3114409 L20.1322675,19.3114409 C20.4474611,17.92805 20.6445265,16.4301773 20.7013082,14.8568955 Z M4.39534889,21.2205318 L7.39752912,21.2205318 C7.86461656,22.61455 8.46013923,23.8373864 9.15370644,24.8299227 C7.27083946,24.0614182 5.6363254,22.8070182 4.39534889,21.2205318 Z M9.28125004,21.2205318 L12.5581396,21.2205318 L12.5581396,25.5159864 C11.1694417,25.0147546 10.0463798,23.4114364 9.28125004,21.2205318 Z M14.4418605,21.2205318 L17.71875,21.2205318 C16.9536203,23.4114364 15.8305584,25.0147546 14.4418605,25.5159864 L14.4418605,21.2205318 Z M19.6024709,21.2205318 L22.6046512,21.2205318 C21.3636747,22.8070182 19.7291575,24.0614182 17.8462936,24.8299227 C18.5398608,23.8373864 19.1353835,22.61455 19.6024709,21.2205318 Z" id="Shape"></path>
                        </g>
                    </g>
                </g>
            </g>
        </g>
    </g>
</svg>